<?xml version="1.0" encoding="utf-8"?>
<!-- Generator: Adobe Illustrator 27.5.0, SVG Export Plug-In . SVG Version: 6.00 Build 0)  -->
<svg version="1.1" xmlns="http://www.w3.org/2000/svg" xmlns:xlink="http://www.w3.org/1999/xlink" x="0px" y="0px"
	 viewBox="0 0 500 500" style="enable-background:new 0 0 500 500;" xml:space="preserve">
<g id="Background_Simple">
	<g>
		<path style="fill:#92E3A9;" d="M319.986,71.345c0,0-75.91-28.985-149.074,13.366C97.748,127.061,62.068,213.274,31.331,282.293
			c-30.736,69.019-10.93,140.222,46.175,173.629c57.104,33.407,94.607-13.459,173.808-14.227
			c79.201-0.768,100.735,11.276,165.616-33.381c64.882-44.656,74.7-152.926,21.297-234.225
			C384.824,92.791,319.986,71.345,319.986,71.345z"/>
		<path style="opacity:0.7;fill:#FFFFFF;" d="M319.986,71.345c0,0-75.91-28.985-149.074,13.366
			C97.748,127.061,62.068,213.274,31.331,282.293c-30.736,69.019-10.93,140.222,46.175,173.629
			c57.104,33.407,94.607-13.459,173.808-14.227c79.201-0.768,100.735,11.276,165.616-33.381
			c64.882-44.656,74.7-152.926,21.297-234.225C384.824,92.791,319.986,71.345,319.986,71.345z"/>
	</g>
</g>
<g id="Floor">
	
		<line style="fill:none;stroke:#263238;stroke-linecap:round;stroke-linejoin:round;stroke-miterlimit:10;" x1="17.002" y1="416.384" x2="484.917" y2="416.384"/>
</g>
<g id="Picture_2">
	<g style="opacity:0.3;">
		<rect x="262.728" y="54.184" style="fill:none;stroke:#000000;stroke-miterlimit:10;" width="169.007" height="213.154"/>
		<path style="fill:none;stroke:#000000;stroke-miterlimit:10;" d="M262.728,222.368c12.263-14.741,28.691-30.87,50.354-46.092
			c40.302-28.296,86.202-42.203,118.653-63.247"/>
		<path style="fill:none;stroke:#000000;stroke-miterlimit:10;" d="M262.728,168.863c25.091-14.175,55.353-33.733,79.333-56.731
			c26.694-25.594,33.808-45.195,34.609-57.949"/>
		<path style="fill:none;stroke:#000000;stroke-miterlimit:10;" d="M306.951,267.338c16.717-37.279,48.463-101.722,56.496-73.117
			c6.153,21.93-2.927,51.368-12.167,73.117"/>
		<path style="fill:none;stroke:#000000;stroke-miterlimit:10;" d="M305.317,54.184c-13.448,14.559-27.004,34.128-13.619,43.453
			c18.009,12.562,41.637-15.489,53.793-43.453"/>
		<circle style="fill:none;stroke:#000000;stroke-miterlimit:10;" cx="395.519" cy="90.397" r="21.73"/>
		<circle style="fill:none;stroke:#000000;stroke-miterlimit:10;" cx="286.526" cy="126.269" r="11.382"/>
		
			<ellipse transform="matrix(0.9247 -0.3806 0.3806 0.9247 -63.3354 130.4788)" style="fill:none;stroke:#000000;stroke-miterlimit:10;" cx="298.231" cy="225.375" rx="17.7" ry="17.7"/>
	</g>
</g>
<g id="Picture_1">
	<g style="opacity:0.3;">
		<rect x="102.077" y="56.655" style="fill:none;stroke:#000000;stroke-miterlimit:10;" width="61.813" height="78.811"/>
		<rect x="107.487" y="63.552" style="fill:none;stroke:#000000;stroke-miterlimit:10;" width="50.993" height="65.017"/>
		<rect x="121.484" y="81.398" style="fill:none;stroke:#000000;stroke-miterlimit:10;" width="22.999" height="29.324"/>
	</g>
</g>
<g id="Lamp">
	<g>
		<polygon style="fill:#263238;stroke:#263238;stroke-linecap:round;stroke-linejoin:round;stroke-miterlimit:10;" points="
			62.874,408.526 54.821,408.526 54.821,98.748 51.213,98.748 51.213,408.526 43.285,408.526 33.491,421.701 72.669,421.701 		"/>
		<polygon style="fill:#FFFFFF;stroke:#263238;stroke-linecap:round;stroke-linejoin:round;stroke-miterlimit:10;" points="
			35.801,79.486 70.359,79.486 87.638,154.39 18.521,154.39 		"/>
	</g>
</g>
<g id="Plant">
	<g>
		<path style="fill:#92E3A9;stroke:#263238;stroke-linecap:round;stroke-linejoin:round;stroke-miterlimit:10;" d="M398.633,294.793
			c0,0-2.422,6.66-7.569,7.569c-5.147,0.908-14.229-9.082-8.477-14.229C388.34,282.986,396.211,291.16,398.633,294.793z"/>
		<path style="fill:#92E3A9;stroke:#263238;stroke-linecap:round;stroke-linejoin:round;stroke-miterlimit:10;" d="M406.505,262.096
			c0,0-7.569,18.467-4.541,27.55c3.027,9.082,21.797,15.743,27.247,3.936c5.449-11.807-6.66-28.458-11.202-32.091
			C413.468,257.858,408.018,259.069,406.505,262.096z"/>
		<path style="fill:#92E3A9;stroke:#263238;stroke-linecap:round;stroke-linejoin:round;stroke-miterlimit:10;" d="M450.705,269.968
			c0,0-13.018,11.807-14.532,23.614s7.266,16.045,16.348,14.532c9.082-1.514,13.624-24.522,10.899-35.118
			C460.695,262.399,450.705,269.968,450.705,269.968z"/>
		<path style="fill:#92E3A9;stroke:#263238;stroke-linecap:round;stroke-linejoin:round;stroke-miterlimit:10;" d="M453.127,335.36
			c0,0-14.532,0.605-15.137,7.569c-0.605,6.963,6.357,8.477,13.321,2.422C458.274,339.296,459.182,335.663,453.127,335.36z"/>
		<path style="fill:#92E3A9;stroke:#263238;stroke-linecap:round;stroke-linejoin:round;stroke-miterlimit:10;" d="M417.101,349.892
			c0,0-1.514,7.266-6.963,9.99c-5.45,2.725-15.137-3.027-9.991-11.807C405.294,339.296,414.376,346.259,417.101,349.892z"/>
		<path style="fill:#92E3A9;stroke:#263238;stroke-linecap:round;stroke-linejoin:round;stroke-miterlimit:10;" d="M404.385,327.186
			c0,0-2.725-6.055-13.321-2.119c-10.596,3.936-14.835,9.991-8.174,12.11C389.551,339.296,404.385,327.186,404.385,327.186z"/>
		<path style="fill:#92E3A9;stroke:#263238;stroke-linecap:round;stroke-linejoin:round;stroke-miterlimit:10;" d="M434.66,254.528
			c0,0,1.816,4.238,5.449,3.33c3.633-0.908,4.541-6.357,10.293-4.844c5.752,1.514,10.596,8.174,10.596,5.147
			c0-3.027-7.266-10.899-15.44-10.899C437.384,247.262,434.962,250.592,434.66,254.528z"/>
		<path style="fill:none;stroke:#263238;stroke-linecap:round;stroke-linejoin:round;stroke-miterlimit:10;" d="M419.683,300.256
			c0,0,6.333,18.547,7.69,34.38c1.357,15.833,0,40.104,0,40.104"/>
		<path style="fill:none;stroke:#263238;stroke-linecap:round;stroke-linejoin:round;stroke-miterlimit:10;" d="M441.849,306.589
			c0,0-7.238,21.262-9.047,34.833c-1.81,13.571-2.238,33.443-2.238,33.443"/>
		<path style="fill:none;stroke:#263238;stroke-linecap:round;stroke-linejoin:round;stroke-miterlimit:10;" d="M438.23,344.588
			c0,0-3.246-0.61-5.056,30.152"/>
		<path style="fill:none;stroke:#263238;stroke-linecap:round;stroke-linejoin:round;stroke-miterlimit:10;" d="M417.101,349.892
			c0,0,3.035-2.589,4.844,3.291c1.809,5.881,1.036,21.681,1.036,21.681"/>
		<path style="fill:none;stroke:#263238;stroke-linecap:round;stroke-linejoin:round;stroke-miterlimit:10;" d="M424.928,346.977
			c2.367,13.261,0.184,27.92,0.184,27.92"/>
		<path style="fill:none;stroke:#263238;stroke-linecap:round;stroke-linejoin:round;stroke-miterlimit:10;" d="M404.385,327.186
			c0,0,13.036-2.502,18.464,11.974c0.533,1.42,0.982,2.906,1.361,4.43"/>
		<path style="fill:#92E3A9;stroke:#263238;stroke-linecap:round;stroke-linejoin:round;stroke-miterlimit:10;" d="M458.79,313.163
			c0,0,2.725-6.055,13.321-2.119c10.596,3.936,14.834,9.991,8.174,12.11C473.624,325.272,458.79,313.163,458.79,313.163z"/>
		<path style="fill:none;stroke:#263238;stroke-linecap:round;stroke-linejoin:round;stroke-miterlimit:10;" d="M447.201,315.814
			c-2.62,1.793-5.138,4.687-6.876,9.322c-5.428,14.476-4.851,49.604-4.851,49.604"/>
		<path style="fill:none;stroke:#263238;stroke-linecap:round;stroke-linejoin:round;stroke-miterlimit:10;" d="M458.79,313.163
			c0,0-4.321-0.829-9.024,1.229"/>
		<path style="fill:none;stroke:#263238;stroke-linecap:round;stroke-linejoin:round;stroke-miterlimit:10;" d="M412.91,304.028
			c2.828,3.32,5.57,7.81,7.678,13.87c7.238,20.809,9.952,47.014,8.595,56.966"/>
		<path style="fill:none;stroke:#263238;stroke-linecap:round;stroke-linejoin:round;stroke-miterlimit:10;" d="M398.633,294.793
			c0,0,6.312,0.985,12.701,7.509"/>
		<path style="fill:none;stroke:#263238;stroke-linecap:round;stroke-linejoin:round;stroke-miterlimit:10;" d="M431.292,323.502
			c-0.44,26.263-0.728,51.362-0.728,51.362"/>
		<path style="fill:none;stroke:#263238;stroke-linecap:round;stroke-linejoin:round;stroke-miterlimit:10;" d="M434.66,254.528
			c0,0-1.405-1.319-2.31,22.204c-0.352,9.141-0.703,26.137-1.002,43.502"/>
		<polygon style="fill:#FFFFFF;stroke:#263238;stroke-linecap:round;stroke-linejoin:round;stroke-miterlimit:10;" points="
			418.047,419.998 407.469,374.897 453.159,374.897 442.588,419.955 		"/>
		<g>
			<polygon style="fill:#263238;stroke:#263238;stroke-linecap:round;stroke-linejoin:round;stroke-miterlimit:10;" points="
				410.78,388.921 412.092,393.897 448.78,393.897 449.966,388.921 			"/>
		</g>
	</g>
</g>
<g id="Character_2">
	<g>
		<path style="fill:#263238;stroke:#263238;stroke-linecap:round;stroke-linejoin:round;stroke-miterlimit:10;" d="M348.185,266.017
			c0,0,11.555-4.627,16.048-1.382c4.493,3.245,11.232,10.483,8.487,20.967c-2.746,10.483-8.736,11.731-4.743,18.22
			c2.311,3.755,6.295,5.877,8.448,9.816c8.556,15.656-4.437,34.945-21.427,35.863c-9.235,0.499-17.223-0.998-22.714-20.218
			c-5.491-19.22,4.243-26.209,6.49-35.194c2.246-8.986,0.749-12.979,0.25-16.973C338.523,273.122,341.872,265.402,348.185,266.017z"
			/>
		<path style="fill:#ABABAB;stroke:#263238;stroke-linecap:round;stroke-linejoin:round;stroke-miterlimit:10;" d="M268.883,411.154
			c0,0-6.989,5.741-7.488,9.236c-0.499,3.495,6.24,9.984,10.234,10.983c3.994,0.999,28.455-17.472,30.202-20.218
			c1.747-2.746-14.228-4.243-16.474-4.243C283.11,406.911,268.883,411.154,268.883,411.154z"/>
		<path style="fill:#92E3A9;stroke:#263238;stroke-linecap:round;stroke-linejoin:round;stroke-miterlimit:10;" d="M347.758,433.868
			c0,0,14.976,11.232,18.721,11.732c3.744,0.499,1.498-8.487,0.25-10.983c-1.248-2.496-2.246-3.744-2.246-3.744L347.758,433.868z"/>
		<path style="fill:#ABABAB;stroke:#263238;stroke-linecap:round;stroke-linejoin:round;stroke-miterlimit:10;" d="M293.344,409.407
			c0,0-18.221,10.483-17.472,16.724c0.749,6.24,6.24,9.485,9.735,10.483c3.494,0.998,48.174-14.727,49.672-17.972
			C336.775,415.398,296.339,407.66,293.344,409.407z"/>
		<path style="fill:#263238;stroke:#263238;stroke-linecap:round;stroke-linejoin:round;stroke-miterlimit:10;" d="M314.311,382.699
			c0,0-30.202,20.218-33.947,22.465c-3.744,2.246-11.482,5.991-11.482,5.991s20.717-0.749,29.703,2.746
			c8.986,3.495,14.228,5.491,14.228,5.491s26.957,4.992,29.204,4.992c2.246,0,21.216-6.24,22.714-19.719
			c1.498-13.479-3.994-22.215-3.994-22.215L314.311,382.699z"/>
		<path style="fill:#92E3A9;stroke:#263238;stroke-linecap:round;stroke-linejoin:round;stroke-miterlimit:10;" d="M315.505,309.164
			c0,0-8.681,3.064-9.957,10.212c-1.277,7.149,0.766,13.276,0.766,14.297c0,1.021-2.043,23.488,1.532,34.467
			c3.574,10.978,3.574,21.191,3.574,21.191s5.617,1.787,9.957,1.787c4.34,0,12-1.021,12-1.021l5.872-6.638l1.787,6.638
			c0,0,9.957-0.255,13.276-1.277c3.319-1.021,11.744-5.362,11.744-5.362s-15.574-26.552-15.829-27.829
			c-0.255-1.277-3.574-26.297-7.915-34.722c-4.34-8.425-7.149-12-10.978-13.276C327.505,306.356,315.505,309.164,315.505,309.164z"
			/>
		<g>
			<path style="fill:#92E3A9;stroke:#263238;stroke-linecap:round;stroke-linejoin:round;stroke-miterlimit:10;" d="
				M340.015,265.251c0,0,7.915-12.51,9.702-8.681c1.787,3.83-1.532,9.447-1.532,9.447s15.574-1.021,13.787,4.596
				c-1.787,5.617-12.255,3.064-12.255,3.064l-0.255,15.063l-5.872,2.298c0,0-0.255-15.319,0.255-16.34
				C344.355,273.676,340.015,265.251,340.015,265.251z"/>
			<path style="fill:#FFFFFF;stroke:#263238;stroke-linecap:round;stroke-linejoin:round;stroke-miterlimit:10;" d="
				M310.654,260.145c0,0-6.638,6.893-6.893,11.234c-0.255,4.34-1.021,9.957-2.553,10.978c-1.532,1.021-6.893,2.298-5.872,4.085
				c1.021,1.787,3.83,4.085,3.83,4.085s2.298,9.191,4.34,10.978c2.043,1.787,8.425,0.255,8.425,0.255l3.574,22.212
				c0,0,6.127-10.978,8.936-13.276c2.808-2.298,6.893-3.064,6.893-3.064s-1.021-4.596-1.021-6.128
				c0-1.532,14.042-13.787,15.319-21.191c1.277-7.404-4.085-17.361-8.425-20.425c-4.34-3.064-21.957-5.362-24.765-5.617
				C309.633,254.018,307.59,258.103,310.654,260.145z"/>
			<polygon style="fill:#263238;stroke:#263238;stroke-linecap:round;stroke-linejoin:round;stroke-miterlimit:10;" points="
				311.931,301.76 317.166,300.844 313.084,307.895 			"/>
			<path style="fill:#263238;stroke:#263238;stroke-linecap:round;stroke-linejoin:round;stroke-miterlimit:10;" d="M337.206,259.89
				c-4.692-2.492-21.957-5.361-24.765-5.617c-2.808-0.255-4.851,3.83-1.787,5.872c0,0,7.659,4.34,9.191,6.638
				c1.532,2.298-4.085,7.404-2.043,9.957c2.043,2.553,6.128,4.085,6.128,4.851s-1.532,3.83-0.255,4.596
				c1.277,0.766,4.596-2.042,5.872,0c1.277,2.042,2.298,7.404,0,9.702c-2.298,2.298-4.34,2.042-4.34,2.042s3.418,1.459,7.005,1.01
				c3.878-4.34,12.436-12.921,13.419-18.626C346.908,272.91,345.376,264.23,337.206,259.89z"/>
			<path style="fill:#263238;" d="M308.599,281.125c-0.179,1.185-0.833,2.069-1.461,1.974c-0.627-0.095-0.991-1.133-0.811-2.318
				c0.179-1.185,0.833-2.069,1.461-1.974C308.415,278.902,308.778,279.94,308.599,281.125z"/>
			<path style="fill:none;stroke:#263238;stroke-linecap:round;stroke-linejoin:round;stroke-miterlimit:10;" d="M305.293,274.953
				c0,0,4.34-4.085,5.872,1.787"/>
			<path style="fill:none;stroke:#263238;stroke-linecap:round;stroke-linejoin:round;stroke-miterlimit:10;" d="M302.484,292.059
				c0,0,3.574,2.043,6.893-1.532"/>
		</g>
		<g>
			<path style="fill:#FFFFFF;stroke:#263238;stroke-linecap:round;stroke-linejoin:round;stroke-miterlimit:10;" d="
				M305.803,388.055l-8.936,3.064c0,0-12.766,2.553-13.021,3.319c-0.255,0.766,0,9.957,1.021,10.723
				c1.021,0.766,5.872-0.255,7.404-1.021c1.532-0.766,2.553-3.064,2.553-3.064s0.766-0.766,2.553-1.277
				c1.787-0.511,5.362-4.085,5.362-4.085l6.127-1.277L305.803,388.055z"/>
			<path style="fill:#FFFFFF;stroke:#263238;stroke-linecap:round;stroke-linejoin:round;stroke-miterlimit:10;" d="
				M294.825,401.076c0,0-3.627,1.482-5.426,1.122"/>
		</g>
		<path style="fill:#92E3A9;stroke:#263238;stroke-linecap:round;stroke-linejoin:round;stroke-miterlimit:10;" d="M324.696,317.845
			c0,0-4.596,6.638-4.34,10.723s6.893,39.573,6.893,39.573l-23.233,18.893l2.808,10.978c0,0,4.596-2.043,16.34-6.893
			c11.744-4.851,26.552-12.51,26.807-15.319c0.255-2.808-6.383-43.658-8.425-49.275c-2.043-5.617-3.319-9.446-6.893-10.723"/>
		<path style="fill:#ABABAB;stroke:#263238;stroke-linecap:round;stroke-linejoin:round;stroke-miterlimit:10;" d="M292.096,426.131
			c0,0,17.472-9.235,23.213-8.736c5.741,0.499,37.94,6.989,42.433,7.488c4.493,0.499,15.476-5.741,18.221-7.987
			c2.746-2.246,6.739,1.498,8.237,4.493c1.498,2.995,17.972,16.973,16.973,18.471c-0.998,1.498-6.989,1.248-6.989,1.248
			s-17.972-4.742-22.964-5.741c-4.992-0.998-22.215,0-34.695,1.747c-12.48,1.747-42.683,1.498-46.177,0.749
			c-3.494-0.749-5.741-1.498-6.739-2.746"/>
		<path style="fill:#92E3A9;stroke:#263238;stroke-linecap:round;stroke-linejoin:round;stroke-miterlimit:10;" d="M384.201,421.388
			c-1.498-2.995-5.491-6.739-8.237-4.493c-1.209,0.989-4.015,2.752-7.161,4.373l10.406,7.857c0,0-0.998,1.498-1.997,3.245
			c-0.784,1.372-0.952,3.354-0.988,4.145c7.181,1.747,17.961,4.591,17.961,4.591s5.991,0.25,6.989-1.248
			C402.172,438.361,385.698,424.383,384.201,421.388z"/>
	</g>
</g>
<g id="Character_1">
	<g>
		<g>
			<path style="fill:#ABABAB;stroke:#263238;stroke-linecap:round;stroke-linejoin:round;stroke-miterlimit:10;" d="
				M150.974,193.867c0,0-0.86,0.041-2.4,0.121c-13.16,0.686-76.001,4.245-77.214,9.704c-1.355,6.098,8.808,116.88,9.147,117.897
				c0.339,1.016,109.766,0,109.766,0s2.929-116.569,2.156-121.346S150.974,193.867,150.974,193.867z"/>
			<g>
				<polygon style="fill:#263238;stroke:#263238;stroke-linecap:round;stroke-linejoin:round;stroke-miterlimit:10;" points="
					142.098,425.256 134.781,425.256 132.341,400.186 144.538,400.186 				"/>
				<polygon style="fill:#263238;stroke:#263238;stroke-linecap:round;stroke-linejoin:round;stroke-miterlimit:10;" points="
					97.04,425.256 89.722,425.256 87.283,400.186 99.479,400.186 				"/>
			</g>
			<g>
				<polygon style="fill:#263238;stroke:#263238;stroke-linecap:round;stroke-linejoin:round;stroke-miterlimit:10;" points="
					243.801,425.256 236.483,425.256 234.044,400.186 246.24,400.186 				"/>
				<polygon style="fill:#263238;stroke:#263238;stroke-linecap:round;stroke-linejoin:round;stroke-miterlimit:10;" points="
					198.743,425.256 191.425,425.256 188.986,400.186 201.182,400.186 				"/>
			</g>
			<path style="fill:#ABABAB;stroke:#263238;stroke-linecap:round;stroke-linejoin:round;stroke-miterlimit:10;" d="M241.217,276.86
				h-59.054c-6.059,0-11.035,4.931-10.924,10.989c0.001,0.078,0.003,0.157,0.006,0.236c0.264,7.91,18.72,117.328,18.72,117.328
				h48.513L241.217,276.86z"/>
			<path style="fill:#ABABAB;stroke:#263238;stroke-linecap:round;stroke-linejoin:round;stroke-miterlimit:10;" d="
				M259.166,405.677V291.672c0-8.181-6.632-14.812-14.812-14.812h-3.137c-8.181,0-14.812,6.632-14.812,14.812v114.004H259.166z"/>
			
				<rect x="145.934" y="319.988" style="fill:#ABABAB;stroke:#263238;stroke-linecap:round;stroke-linejoin:round;stroke-miterlimit:10;" width="80.47" height="85.689"/>
		</g>
		<g>
			<g>
				<path style="fill:#FFFFFF;stroke:#263238;stroke-linecap:round;stroke-linejoin:round;stroke-miterlimit:10;" d="
					M208.306,372.772c0,0-10.643,44.391-10.903,46.987c-0.26,2.596,0.779,7.528,4.154,7.788c3.375,0.26,10.384-0.519,11.163-0.519
					c0.779,0,10.903,2.596,16.614,2.596c5.711,0,10.643-1.558,10.384-4.154c-0.26-2.596-7.528-3.375-10.643-5.192
					c-3.115-1.817-14.278-9.865-14.797-10.903c-0.519-1.038,10.643-32.709,10.643-32.709L208.306,372.772z"/>
				<path style="fill:#263238;stroke:#263238;stroke-linecap:round;stroke-linejoin:round;stroke-miterlimit:10;" d="
					M239.717,425.469c-0.26-2.596-7.528-3.375-10.643-5.192c-3.115-1.817-14.278-9.865-14.797-10.903c0,0-3.894,0.519-4.154,1.298
					c-0.259,0.779-1.038,2.077-1.038,2.077s-6.23,0.519-9.865,0c-0.108-0.016-0.212-0.031-0.318-0.046
					c-0.862,3.799-1.44,6.475-1.499,7.055c-0.26,2.596,0.779,7.528,4.154,7.788c3.375,0.26,10.384-0.519,11.163-0.519
					c0.779,0,10.903,2.596,16.614,2.596C235.045,429.623,239.977,428.065,239.717,425.469z"/>
			</g>
			<path style="fill:#263238;stroke:#263238;stroke-linecap:round;stroke-linejoin:round;stroke-miterlimit:10;" d="
				M200.518,295.413c0,0,38.161,4.673,43.872,5.192c5.711,0.519,4.413,4.673,4.154,9.345s-14.818,84.937-14.818,84.937
				s0.26,0.26-9.086,0.26c-9.345,0-21.546-3.375-21.546-3.375l13.78-70.659h-21.287c0,0-21.287-16.354-18.95-21.287
				C178.972,294.893,200.518,295.413,200.518,295.413z"/>
		</g>
		<path style="fill:#FFFFFF;stroke:#263238;stroke-linecap:round;stroke-linejoin:round;stroke-miterlimit:10;" d="M201.557,398.991
			c0,0,3.115,12.98,6.49,18.95c3.375,5.971,13.239,16.095,16.095,18.172c2.855,2.077,9.345,3.894,9.345,5.971
			c0,2.077-2.336,4.413-8.307,5.971c-5.971,1.558-8.826,2.077-15.057-0.26c-6.23-2.336-15.316-7.528-18.95-8.826
			c-3.634-1.298-4.932-4.413-4.413-7.269c0.519-2.855,0.519-9.345,1.038-11.422c0.519-2.077,1.298-8.047,1.038-9.605
			c-0.26-1.557-2.856-12.98-2.856-12.98L201.557,398.991z"/>
		<path style="fill:#263238;stroke:#263238;stroke-linecap:round;stroke-linejoin:round;stroke-miterlimit:10;" d="M204.412,419.758
			c-2.336,2.077-2.856,7.788-2.856,7.788s-3.894-1.298-8.307-3.634c-1.962-1.039-3.972-2.024-5.603-2.801
			c-0.373,2.622-0.424,8.044-0.887,10.589c-0.519,2.856,0.779,5.971,4.413,7.269c3.634,1.298,12.72,6.49,18.95,8.826
			c6.23,2.336,9.086,1.817,15.057,0.26c5.971-1.558,8.307-3.894,8.307-5.971c0-2.077-6.49-3.894-9.345-5.971
			c-2.856-2.077-12.72-12.201-16.095-18.172C208.047,417.941,206.749,417.682,204.412,419.758z"/>
		<g>
			<path style="fill:#263238;stroke:#263238;stroke-linecap:round;stroke-linejoin:round;stroke-miterlimit:10;" d="
				M147.042,321.891h20.768c0,0,2.336,30.373,3.375,42.054c1.038,11.682,4.413,35.565,4.413,35.565s8.307,3.115,13.239,3.115
				s19.21-2.077,19.21-2.077s-8.567-64.38-8.567-76.84c0-12.461-0.519-17.912-3.375-20.768c-2.855-2.855-38.939-7.269-43.093-7.788
				c-4.154-0.519-7.269-0.519-7.269-0.519L147.042,321.891z"/>
		</g>
		<g>
			<path style="fill:#92E3A9;stroke:#263238;stroke-linecap:round;stroke-linejoin:round;stroke-miterlimit:10;" d="M153.5,185.132
				c0,0-13.223,8.357-19.151,10.897c-5.928,2.541-12.139,7.905-12.139,9.599c0,1.694,8.187,83.845,9.316,84.974
				c1.129,1.129,7.058,4.517,9.881,5.082s61.543-2.258,61.543-2.258s3.105-1.129,4.517-4.235c1.411-3.105,7.34-9.034,8.187-11.575
				c0.847-2.541-12.139-63.801-14.68-70.859c-2.541-7.058-7.058-9.598-9.316-11.292c-2.258-1.694-20.326-7.622-25.69-8.469
				C160.603,186.149,153.5,185.132,153.5,185.132z"/>
			
				<line style="fill:#FFFFFF;stroke:#263238;stroke-linecap:round;stroke-linejoin:round;stroke-miterlimit:10;" x1="198.249" y1="230.446" x2="204.487" y2="277.057"/>
			
				<line style="fill:#FFFFFF;stroke:#263238;stroke-linecap:round;stroke-linejoin:round;stroke-miterlimit:10;" x1="196.92" y1="220.511" x2="197.595" y2="225.553"/>
			
				<line style="fill:none;stroke:#263238;stroke-linecap:round;stroke-linejoin:round;stroke-miterlimit:10;" x1="184.88" y1="253.868" x2="185.358" y2="258.769"/>
			
				<line style="fill:none;stroke:#263238;stroke-linecap:round;stroke-linejoin:round;stroke-miterlimit:10;" x1="181.764" y1="221.929" x2="184.382" y2="248.762"/>
		</g>
		<path style="fill:#92E3A9;stroke:#263238;stroke-linecap:round;stroke-linejoin:round;stroke-miterlimit:10;" d="M163.81,178.2
			c0,0-2.844-1.6-3.2-1.066c-0.356,0.533-7.111,7.11-7.111,7.999c0,0.889,0.533,13.688,7.822,23.287
			c7.288,9.599,9.421,12.443,9.421,12.443l6.755-9.421l4.089-2.666c0,0,2.666,2.311,3.022,3.2c0.355,0.889,3.555,6.577,4.977,6.933
			c1.422,0.356-0.889-1.244-0.889-7.644s-1.067-11.91-2.311-14.043C185.142,195.087,163.81,178.2,163.81,178.2z"/>
		<g>
			<path style="fill:#FFFFFF;stroke:#263238;stroke-linecap:round;stroke-linejoin:round;stroke-miterlimit:10;" d="
				M185.853,129.671c0,0-7.822-0.711-14.399,5.333c-6.577,6.044-7.466,23.465-6.755,25.953c0.711,2.489,0.533,11.91,0,14.399
				c-0.533,2.489-2.311,6.399-2.311,6.399s4.622,14.399,8.177,20.087c3.555,5.688,6.577,9.066,6.933,9.599
				c0.355,0.533,4.089,9.955,4.266,10.488c0.178,0.533,3.022-13.688,3.733-16.354c0.711-2.667,1.244-5.155,1.244-5.155
				s4.266,0.355,5.688-0.178c1.422-0.533,5.866-5.688,8.355-9.599c2.489-3.911,4.089-7.11,7.822-15.465
				c3.733-8.355,4.444-22.753,2.489-29.153s-6.933-11.555-12.443-14.043C193.141,129.493,185.853,129.671,185.853,129.671z"/>
			<path style="fill:#FFFFFF;stroke:#263238;stroke-linecap:round;stroke-linejoin:round;stroke-miterlimit:10;" d="
				M173.232,133.404c0,0-3.911,3.555-1.244,5.511c2.666,1.955,11.021,3.733,11.732,7.111c0.711,3.377-2.133,6.755-4.799,7.466
				c-2.667,0.711-5.688,0.533-6.044,1.955s0.533,4.089-0.711,4.8c-1.244,0.711-4.444-0.356-5.866-0.889
				c-1.422-0.533-2.311-2.844-2.311-2.844S163.988,138.381,173.232,133.404z"/>
			<path style="fill:#FFFFFF;stroke:#263238;stroke-linecap:round;stroke-linejoin:round;stroke-miterlimit:10;" d="
				M169.143,160.957c0,0-4.8-6.933-6.577-2.311c-1.778,4.622-0.711,11.732,1.422,12.977c2.133,1.244,4.622-1.067,4.622-1.067"/>
			<path style="fill:none;stroke:#263238;stroke-linecap:round;stroke-linejoin:round;stroke-miterlimit:10;" d="M195.63,163.623
				c0,0-4.622-4.266-10.31-0.711"/>
			<path style="fill:none;stroke:#263238;stroke-linecap:round;stroke-linejoin:round;stroke-miterlimit:10;" d="M202.384,165.579
				c0,0,4.8-3.022,7.288,1.955"/>
			<path style="fill:none;stroke:#263238;stroke-linecap:round;stroke-linejoin:round;stroke-miterlimit:10;" d="M199.54,178.911
				c0,0,0.178,4.089-0.889,4.977c-1.066,0.889-4.266,0.889-5.155,0.178c-0.889-0.711-0.889-0.711-0.889-0.711
				s-2.311,0.355-3.022-1.067c-0.711-1.422-2.489-2.666,0.178-3.555c0,0-4.266,1.778-5.511,3.022"/>
			<path style="fill:#263238;stroke:#263238;stroke-linecap:round;stroke-linejoin:round;stroke-miterlimit:10;" d="M185.142,185.31
				c0,0,3.022,3.022,7.11,3.2c0,0-3.733,2.133-5.688,1.6C184.608,189.576,185.142,185.31,185.142,185.31z"/>
			<path style="fill:#263238;" d="M189.736,170.716c-0.264,1.198-0.984,2.059-1.607,1.921s-0.914-1.22-0.65-2.419
				c0.264-1.198,0.984-2.059,1.607-1.921C189.709,168.434,190,169.517,189.736,170.716z"/>
			<path style="fill:#263238;" d="M204.162,174.467c-0.264,1.198-0.984,2.059-1.607,1.921c-0.623-0.137-0.914-1.22-0.65-2.419
				c0.264-1.198,0.984-2.059,1.607-1.921C204.135,172.185,204.426,173.268,204.162,174.467z"/>
			<path style="fill:none;stroke:#263238;stroke-linecap:round;stroke-linejoin:round;stroke-miterlimit:10;" d="M190.119,173.222
				c0,0-2.133,2.489-4.977,2.489"/>
			<path style="fill:none;stroke:#263238;stroke-linecap:round;stroke-linejoin:round;stroke-miterlimit:10;" d="M201.14,177.311
				c0,0,1.067,2.489,3.2,3.022"/>
			<path style="fill:none;stroke:#263238;stroke-linecap:round;stroke-linejoin:round;stroke-miterlimit:10;" d="M198.651,183.888
				c0,0,1.244,0.889,0.711,3.2"/>
			<path style="fill:#263238;stroke:#263238;stroke-linecap:round;stroke-linejoin:round;stroke-miterlimit:10;" d="M186.741,200.42
				c0,0-0.889,0.355-2.844-1.067c-1.955-1.422-7.111-6.755-7.111-6.755s3.2,6.044,4.977,9.066c1.778,3.022,3.733,3.911,3.733,3.911
				L186.741,200.42z"/>
		</g>
		<g>
			<polygon style="fill:#FFFFFF;stroke:#263238;stroke-linecap:round;stroke-linejoin:round;stroke-miterlimit:10;" points="
				223.279,295.243 248.592,269.77 198.124,273.75 215.796,295.402 			"/>
			<g>
				<path style="fill:#FFFFFF;stroke:#263238;stroke-linecap:round;stroke-linejoin:round;stroke-miterlimit:10;" d="
					M229.424,268.191c0,0,2.592,0.691,2.246,3.283c-0.346,2.592-1.555,4.319-2.246,4.492c-0.691,0.173-2.937-1.728-2.937-1.728
					L229.424,268.191z"/>
				<path style="fill:#FFFFFF;stroke:#263238;stroke-linecap:round;stroke-linejoin:round;stroke-miterlimit:10;" d="
					M225.796,265.081l3.628,3.11c0,0,0.518,2.937-0.518,4.838c-1.037,1.9-1.382,3.283-2.592,3.11S225.796,265.081,225.796,265.081z"
					/>
				<path style="fill:#FFFFFF;stroke:#263238;stroke-linecap:round;stroke-linejoin:round;stroke-miterlimit:10;" d="
					M219.576,263.008c0,0,5.701,1.382,6.22,2.073c0.518,0.691,0.691,7.429,0.691,9.157c0,1.728-0.864,3.283-1.901,3.11
					c-1.037-0.173-2.764-4.147-2.937-4.665C221.477,272.165,219.576,263.008,219.576,263.008z"/>
				<path style="fill:#FFFFFF;stroke:#263238;stroke-linecap:round;stroke-linejoin:round;stroke-miterlimit:10;" d="
					M207.137,266.29l-1.555,4.147c0,0-4.319,1.209-5.183,2.764c-0.864,1.555,3.974,2.419,5.529,2.246
					c1.555-0.173,4.665-3.628,6.393-4.837c1.728-1.209,5.529,5.356,5.529,5.356s1.728,5.183,3.974,5.529
					c2.246,0.346,3.283-2.419,2.764-4.146c-0.518-1.728-2.591-7.084-3.283-9.33s-1.9-5.529-4.146-6.565s-4.492-0.864-6.565,0.173
					C208.519,262.662,207.137,266.29,207.137,266.29z"/>
			</g>
			<polygon style="fill:#263238;stroke:#263238;stroke-linecap:round;stroke-linejoin:round;stroke-miterlimit:10;" points="
				192.711,264.835 155.139,265.63 188.253,295.243 223.279,295.243 			"/>
		</g>
		<g>
			<path style="fill:#FFFFFF;stroke:#263238;stroke-linecap:round;stroke-linejoin:round;stroke-miterlimit:10;" d="M179.58,293.69
				c0,0,1.911,0.478,3.343,0c1.433-0.478,3.821-2.07,5.731-3.184c1.91-1.114,7.005-0.796,8.915-1.592
				c1.911-0.796,4.776-3.025,5.254-1.91c0.478,1.114,1.274,2.07-0.318,3.343c-1.592,1.274-4.298,1.592-5.413,2.229
				c-1.114,0.637-1.114,0.637-1.114,0.637s8.756,0.159,10.189,0.478c1.433,0.318,8.597,0.318,10.189,0.159
				c1.592-0.159,3.184,0.478,2.388,1.91c-0.796,1.433-4.776,2.547-6.846,4.139c-2.07,1.592-8.119,6.368-10.508,6.846
				c-2.388,0.478-11.94-1.274-15.124-2.07c-3.184-0.796-5.732-1.433-5.732-1.433l-6.209-0.796L179.58,293.69z"/>
			<g>
				<polygon style="fill:#FFFFFF;stroke:#263238;stroke-linecap:round;stroke-linejoin:round;stroke-miterlimit:10;" points="
					171.172,286.647 180.841,293.213 174.08,304.588 164.159,298.6 				"/>
				<path style="fill:#92E3A9;stroke:#263238;stroke-linecap:round;stroke-linejoin:round;stroke-miterlimit:10;" d="
					M133.946,195.571c0,0-12.201,4.589-13.522,6.354s-6.305,69.302-6.382,73.263s10.437,10.484,11.905,11.539
					c1.468,1.055,34.085,14.065,36.073,14.245c1.988,0.18,4.929-3.082,5.94-5.396c1.011-2.314,4.204-6.154,3.212-8.93
					c-0.992-2.776-13.743-14.271-16.411-16.677c-2.669-2.406-12.085-9.551-12.085-9.551l4.674-35.295"/>
				<path style="fill:none;stroke:#263238;stroke-linecap:round;stroke-linejoin:round;stroke-miterlimit:10;" d="M131.622,259.861
					c0,0,5.342-0.559,8.516,0.69"/>
			</g>
		</g>
		<path style="fill:#ABABAB;stroke:#263238;stroke-linecap:round;stroke-linejoin:round;stroke-miterlimit:10;" d="M135.49,276.86
			H76.436c-6.059,0-11.035,4.931-10.923,10.989c0.001,0.078,0.003,0.157,0.006,0.236c0.264,7.91,18.72,117.328,18.72,117.328h48.513
			L135.49,276.86z"/>
		<path style="fill:#ABABAB;stroke:#263238;stroke-linecap:round;stroke-linejoin:round;stroke-miterlimit:10;" d="M153.439,405.677
			V291.672c0-8.181-6.632-14.812-14.812-14.812h-3.137c-8.181,0-14.812,6.632-14.812,14.812v114.004H153.439z"/>
	</g>
</g>
</svg>
